<svg xmlns="http://www.w3.org/2000/svg" xmlns:xlink="http://www.w3.org/1999/xlink" id="body_1" preserveAspectRatio="xMinYMin meet" viewBox="0 0 793 1121"><defs><clipPath id="1"><path clip-rule="evenodd" d="M0 841L0 -0.9199829L0 -0.9199829L595.32 -0.9199829L595.32 -0.9199829L595.32 841L595.32 841L0 841z" /></clipPath><clipPath id="2"><path clip-rule="evenodd" d="M14.52 161.08L153.6 161.08L153.6 161.08L153.6 136.12L153.6 136.12L14.52 136.12z" /></clipPath><clipPath id="3"><path clip-rule="evenodd" d="M14.52 161.08L153.6 161.08L153.6 161.08L153.6 136.12L153.6 136.12L14.52 136.12z" /></clipPath><clipPath id="4"><path clip-rule="evenodd" d="M153.84 161.08L465.24 161.08L465.24 161.08L465.24 136.12L465.24 136.12L153.84 136.12z" /></clipPath><clipPath id="5"><path clip-rule="evenodd" d="M153.84 161.08L465.24 161.08L465.24 161.08L465.24 136.12L465.24 136.12L153.84 136.12z" /></clipPath><clipPath id="6"><path clip-rule="evenodd" d="M14.52 185.32L153.6 185.32L153.6 185.32L153.6 161.56L153.6 161.56L14.52 161.56z" /></clipPath><clipPath id="7"><path clip-rule="evenodd" d="M14.52 185.32L153.6 185.32L153.6 185.32L153.6 161.56L153.6 161.56L14.52 161.56z" /></clipPath><clipPath id="8"><path clip-rule="evenodd" d="M153.84 185.32L465.24 185.32L465.24 185.32L465.24 161.56L465.24 161.56L153.84 161.56z" /></clipPath><clipPath id="9"><path clip-rule="evenodd" d="M153.84 185.32L465.24 185.32L465.24 185.32L465.24 161.56L465.24 161.56L153.84 161.56z" /></clipPath><clipPath id="10"><path clip-rule="evenodd" d="M14.52 213.4L153.6 213.4L153.6 213.4L153.6 185.8L153.6 185.8L14.52 185.8z" /></clipPath><clipPath id="11"><path clip-rule="evenodd" d="M14.52 213.4L153.6 213.4L153.6 213.4L153.6 185.8L153.6 185.8L14.52 185.8z" /></clipPath><clipPath id="12"><path clip-rule="evenodd" d="M153.84 213.4L465.24 213.4L465.24 213.4L465.24 185.8L465.24 185.8L153.84 185.8z" /></clipPath><clipPath id="13"><path clip-rule="evenodd" d="M153.84 213.4L465.24 213.4L465.24 213.4L465.24 185.8L465.24 185.8L153.84 185.8z" /></clipPath><clipPath id="14"><path clip-rule="evenodd" d="M153.84 213.4L465.24 213.4L465.24 213.4L465.24 185.8L465.24 185.8L153.84 185.8z" /></clipPath><clipPath id="15"><path clip-rule="evenodd" d="M14.52 304.36L153.6 304.36L153.6 304.36L153.6 213.88L153.6 213.88L14.52 213.88z" /></clipPath><clipPath id="16"><path clip-rule="evenodd" d="M153.84 304.36L465.24 304.36L465.24 304.36L465.24 213.88L465.24 213.88L153.84 213.88z" /></clipPath><clipPath id="17"><path clip-rule="evenodd" d="M153.84 304.36L465.24 304.36L465.24 304.36L465.24 213.88L465.24 213.88L153.84 213.88z" /></clipPath><clipPath id="18"><path clip-rule="evenodd" d="M14.52 325.96L153.6 325.96L153.6 325.96L153.6 304.84L153.6 304.84L14.52 304.84z" /></clipPath><clipPath id="19"><path clip-rule="evenodd" d="M14.52 325.96L153.6 325.96L153.6 325.96L153.6 304.84L153.6 304.84L14.52 304.84z" /></clipPath><clipPath id="20"><path clip-rule="evenodd" d="M153.84 325.96L465.24 325.96L465.24 325.96L465.24 304.84L465.24 304.84L153.84 304.84z" /></clipPath><clipPath id="21"><path clip-rule="evenodd" d="M153.84 325.96L465.24 325.96L465.24 325.96L465.24 304.84L465.24 304.84L153.84 304.84z" /></clipPath><clipPath id="22"><path clip-rule="evenodd" d="M36.48 467.44L132.96 467.44L132.96 467.44L132.96 387.88L132.96 387.88L36.48 387.88z" /></clipPath><clipPath id="23"><path clip-rule="evenodd" d="M133.2 693.64L146.04 693.64L146.04 693.64L146.04 387.88L146.04 387.88L133.2 387.88z" /></clipPath><clipPath id="24"><path clip-rule="evenodd" d="M146.28 429.28L244.32 429.28L244.32 429.28L244.32 387.88L244.32 387.88L146.28 387.88z" /></clipPath><clipPath id="25"><path clip-rule="evenodd" d="M244.56 429.28L290.16 429.28L290.16 429.28L290.16 387.88L290.16 387.88L244.56 387.88z" /></clipPath><clipPath id="26"><path clip-rule="evenodd" d="M244.56 429.28L290.16 429.28L290.16 429.28L290.16 387.88L290.16 387.88L244.56 387.88z" /></clipPath><clipPath id="27"><path clip-rule="evenodd" d="M290.4 429.28L342.6 429.28L342.6 429.28L342.6 387.88L342.6 387.88L290.4 387.88z" /></clipPath><clipPath id="28"><path clip-rule="evenodd" d="M290.4 429.28L342.6 429.28L342.6 429.28L342.6 387.88L342.6 387.88L290.4 387.88z" /></clipPath><clipPath id="29"><path clip-rule="evenodd" d="M290.4 429.28L342.6 429.28L342.6 429.28L342.6 387.88L342.6 387.88L290.4 387.88z" /></clipPath><clipPath id="30"><path clip-rule="evenodd" d="M342.84 693.64L355.68 693.64L355.68 693.64L355.68 387.88L355.68 387.88L342.84 387.88z" /></clipPath><clipPath id="31"><path clip-rule="evenodd" d="M342.84 693.64L355.68 693.64L355.68 693.64L355.68 387.88L355.68 387.88L342.84 387.88z" /></clipPath><clipPath id="32"><path clip-rule="evenodd" d="M342.84 693.64L355.68 693.64L355.68 693.64L355.68 387.88L355.68 387.88L342.84 387.88z" /></clipPath><clipPath id="33"><path clip-rule="evenodd" d="M355.92 429.28L453.96 429.28L453.96 429.28L453.96 387.88L453.96 387.88L355.92 387.88z" /></clipPath><clipPath id="34"><path clip-rule="evenodd" d="M454.2 429.28L499.8 429.28L499.8 429.28L499.8 387.88L499.8 387.88L454.2 387.88z" /></clipPath><clipPath id="35"><path clip-rule="evenodd" d="M454.2 429.28L499.8 429.28L499.8 429.28L499.8 387.88L499.8 387.88L454.2 387.88z" /></clipPath><clipPath id="36"><path clip-rule="evenodd" d="M500.16 429.28L559.08 429.28L559.08 429.28L559.08 387.88L559.08 387.88L500.16 387.88z" /></clipPath><clipPath id="37"><path clip-rule="evenodd" d="M500.16 429.28L559.08 429.28L559.08 429.28L559.08 387.88L559.08 387.88L500.16 387.88z" /></clipPath><clipPath id="38"><path clip-rule="evenodd" d="M500.16 429.28L559.08 429.28L559.08 429.28L559.08 387.88L559.08 387.88L500.16 387.88z" /></clipPath><clipPath id="39"><path clip-rule="evenodd" d="M146.28 467.44L244.32 467.44L244.32 467.44L244.32 429.88L244.32 429.88L146.28 429.88z" /></clipPath><clipPath id="40"><path clip-rule="evenodd" d="M146.28 467.44L244.32 467.44L244.32 467.44L244.32 429.88L244.32 429.88L146.28 429.88z" /></clipPath><clipPath id="41"><path clip-rule="evenodd" d="M146.28 467.44L244.32 467.44L244.32 467.44L244.32 429.88L244.32 429.88L146.28 429.88z" /></clipPath><clipPath id="42"><path clip-rule="evenodd" d="M290.4 467.44L342.6 467.44L342.6 467.44L342.6 429.88L342.6 429.88L290.4 429.88z" /></clipPath><clipPath id="43"><path clip-rule="evenodd" d="M290.4 467.44L342.6 467.44L342.6 467.44L342.6 429.88L342.6 429.88L290.4 429.88z" /></clipPath><clipPath id="44"><path clip-rule="evenodd" d="M290.4 467.44L342.6 467.44L342.6 467.44L342.6 429.88L342.6 429.88L290.4 429.88z" /></clipPath><clipPath id="45"><path clip-rule="evenodd" d="M355.92 467.44L453.96 467.44L453.96 467.44L453.96 429.88L453.96 429.88L355.92 429.88z" /></clipPath><clipPath id="46"><path clip-rule="evenodd" d="M500.16 467.44L559.08 467.44L559.08 467.44L559.08 429.88L559.08 429.88L500.16 429.88z" /></clipPath><clipPath id="47"><path clip-rule="evenodd" d="M36.48 505.48L88.68 505.48L88.68 505.48L88.68 467.92L88.68 467.92L36.48 467.92z" /></clipPath><clipPath id="48"><path clip-rule="evenodd" d="M36.48 505.48L88.68 505.48L88.68 505.48L88.68 467.92L88.68 467.92L36.48 467.92z" /></clipPath><clipPath id="49"><path clip-rule="evenodd" d="M88.92 505.48L132.96 505.48L132.96 505.48L132.96 467.92L132.96 467.92L88.92 467.92z" /></clipPath><clipPath id="50"><path clip-rule="evenodd" d="M88.92 505.48L132.96 505.48L132.96 505.48L132.96 467.92L132.96 467.92L88.92 467.92z" /></clipPath><clipPath id="51"><path clip-rule="evenodd" d="M146.28 505.48L244.32 505.48L244.32 505.48L244.32 467.92L244.32 467.92L146.28 467.92z" /></clipPath><clipPath id="52"><path clip-rule="evenodd" d="M146.28 505.48L244.32 505.48L244.32 505.48L244.32 467.92L244.32 467.92L146.28 467.92z" /></clipPath><clipPath id="53"><path clip-rule="evenodd" d="M146.28 505.48L244.32 505.48L244.32 505.48L244.32 467.92L244.32 467.92L146.28 467.92z" /></clipPath><clipPath id="54"><path clip-rule="evenodd" d="M290.4 505.48L342.6 505.48L342.6 505.48L342.6 467.92L342.6 467.92L290.4 467.92z" /></clipPath><clipPath id="55"><path clip-rule="evenodd" d="M355.92 505.48L453.96 505.48L453.96 505.48L453.96 467.92L453.96 467.92L355.92 467.92z" /></clipPath><clipPath id="56"><path clip-rule="evenodd" d="M500.16 505.48L559.08 505.48L559.08 505.48L559.08 467.92L559.08 467.92L500.16 467.92z" /></clipPath><clipPath id="57"><path clip-rule="evenodd" d="M36.48 534.4L88.68 534.4L88.68 534.4L88.68 506.08L88.68 506.08L36.48 506.08z" /></clipPath><clipPath id="58"><path clip-rule="evenodd" d="M36.48 534.4L88.68 534.4L88.68 534.4L88.68 506.08L88.68 506.08L36.48 506.08z" /></clipPath><clipPath id="59"><path clip-rule="evenodd" d="M88.92 534.4L132.96 534.4L132.96 534.4L132.96 506.08L132.96 506.08L88.92 506.08z" /></clipPath><clipPath id="60"><path clip-rule="evenodd" d="M88.92 534.4L132.96 534.4L132.96 534.4L132.96 506.08L132.96 506.08L88.92 506.08z" /></clipPath><clipPath id="61"><path clip-rule="evenodd" d="M146.28 534.4L244.32 534.4L244.32 534.4L244.32 506.08L244.32 506.08L146.28 506.08z" /></clipPath><clipPath id="62"><path clip-rule="evenodd" d="M290.4 534.4L342.6 534.4L342.6 534.4L342.6 506.08L342.6 506.08L290.4 506.08z" /></clipPath><clipPath id="63"><path clip-rule="evenodd" d="M355.92 534.4L453.96 534.4L453.96 534.4L453.96 506.08L453.96 506.08L355.92 506.08z" /></clipPath><clipPath id="64"><path clip-rule="evenodd" d="M355.92 534.4L453.96 534.4L453.96 534.4L453.96 506.08L453.96 506.08L355.92 506.08z" /></clipPath><clipPath id="65"><path clip-rule="evenodd" d="M500.16 534.4L559.08 534.4L559.08 534.4L559.08 506.08L559.08 506.08L500.16 506.08z" /></clipPath><clipPath id="66"><path clip-rule="evenodd" d="M36.48 620.56L132.96 620.56L132.96 620.56L132.96 534.88L132.96 534.88L36.48 534.88z" /></clipPath><clipPath id="67"><path clip-rule="evenodd" d="M36.48 620.56L132.96 620.56L132.96 620.56L132.96 534.88L132.96 534.88L36.48 534.88z" /></clipPath><clipPath id="68"><path clip-rule="evenodd" d="M146.28 596.32L244.32 596.32L244.32 596.32L244.32 534.88L244.32 534.88L146.28 534.88z" /></clipPath><clipPath id="69"><path clip-rule="evenodd" d="M146.28 596.32L244.32 596.32L244.32 596.32L244.32 534.88L244.32 534.88L146.28 534.88z" /></clipPath><clipPath id="70"><path clip-rule="evenodd" d="M146.28 596.32L244.32 596.32L244.32 596.32L244.32 534.88L244.32 534.88L146.28 534.88z" /></clipPath><clipPath id="71"><path clip-rule="evenodd" d="M146.28 596.32L244.32 596.32L244.32 596.32L244.32 534.88L244.32 534.88L146.28 534.88z" /></clipPath><clipPath id="72"><path clip-rule="evenodd" d="M290.4 596.32L342.6 596.32L342.6 596.32L342.6 534.88L342.6 534.88L290.4 534.88z" /></clipPath><clipPath id="73"><path clip-rule="evenodd" d="M355.92 596.32L453.96 596.32L453.96 596.32L453.96 534.88L453.96 534.88L355.92 534.88z" /></clipPath><clipPath id="74"><path clip-rule="evenodd" d="M146.28 620.56L244.32 620.56L244.32 620.56L244.32 596.8L244.32 596.8L146.28 596.8z" /></clipPath><clipPath id="75"><path clip-rule="evenodd" d="M244.56 620.56L290.16 620.56L290.16 620.56L290.16 596.8L290.16 596.8L244.56 596.8z" /></clipPath><clipPath id="76"><path clip-rule="evenodd" d="M244.56 620.56L290.16 620.56L290.16 620.56L290.16 596.8L290.16 596.8L244.56 596.8z" /></clipPath><clipPath id="77"><path clip-rule="evenodd" d="M290.4 620.56L342.6 620.56L342.6 620.56L342.6 596.8L342.6 596.8L290.4 596.8z" /></clipPath><clipPath id="78"><path clip-rule="evenodd" d="M355.92 620.56L453.96 620.56L453.96 620.56L453.96 596.8L453.96 596.8L355.92 596.8z" /></clipPath><clipPath id="79"><path clip-rule="evenodd" d="M454.2 620.56L499.8 620.56L499.8 620.56L499.8 596.8L499.8 596.8L454.2 596.8z" /></clipPath><clipPath id="80"><path clip-rule="evenodd" d="M454.2 620.56L499.8 620.56L499.8 620.56L499.8 596.8L499.8 596.8L454.2 596.8z" /></clipPath><clipPath id="81"><path clip-rule="evenodd" d="M500.16 620.56L559.08 620.56L559.08 620.56L559.08 596.8L559.08 596.8L500.16 596.8z" /></clipPath><clipPath id="82"><path clip-rule="evenodd" d="M36.48 693.64L132.96 693.64L132.96 693.64L132.96 621.16L132.96 621.16L36.48 621.16z" /></clipPath><clipPath id="83"><path clip-rule="evenodd" d="M146.28 642.88L244.32 642.88L244.32 642.88L244.32 621.16L244.32 621.16L146.28 621.16z" /></clipPath><clipPath id="84"><path clip-rule="evenodd" d="M244.56 642.88L290.16 642.88L290.16 642.88L290.16 621.16L290.16 621.16L244.56 621.16z" /></clipPath><clipPath id="85"><path clip-rule="evenodd" d="M244.56 642.88L290.16 642.88L290.16 642.88L290.16 621.16L290.16 621.16L244.56 621.16z" /></clipPath><clipPath id="86"><path clip-rule="evenodd" d="M290.4 642.88L342.6 642.88L342.6 642.88L342.6 621.16L342.6 621.16L290.4 621.16z" /></clipPath><clipPath id="87"><path clip-rule="evenodd" d="M355.92 642.88L453.96 642.88L453.96 642.88L453.96 621.16L453.96 621.16L355.92 621.16z" /></clipPath><clipPath id="88"><path clip-rule="evenodd" d="M355.92 642.88L453.96 642.88L453.96 642.88L453.96 621.16L453.96 621.16L355.92 621.16z" /></clipPath><clipPath id="89"><path clip-rule="evenodd" d="M454.2 642.88L499.8 642.88L499.8 642.88L499.8 621.16L499.8 621.16L454.2 621.16z" /></clipPath><clipPath id="90"><path clip-rule="evenodd" d="M454.2 642.88L499.8 642.88L499.8 642.88L499.8 621.16L499.8 621.16L454.2 621.16z" /></clipPath><clipPath id="91"><path clip-rule="evenodd" d="M500.16 642.88L559.08 642.88L559.08 642.88L559.08 621.16L559.08 621.16L500.16 621.16z" /></clipPath><clipPath id="92"><path clip-rule="evenodd" d="M146.28 667.24L244.32 667.24L244.32 667.24L244.32 643.36L244.32 643.36L146.28 643.36z" /></clipPath><clipPath id="93"><path clip-rule="evenodd" d="M244.56 667.24L290.16 667.24L290.16 667.24L290.16 643.36L290.16 643.36L244.56 643.36z" /></clipPath><clipPath id="94"><path clip-rule="evenodd" d="M244.56 667.24L290.16 667.24L290.16 667.24L290.16 643.36L290.16 643.36L244.56 643.36z" /></clipPath><clipPath id="95"><path clip-rule="evenodd" d="M290.4 667.24L342.6 667.24L342.6 667.24L342.6 643.36L342.6 643.36L290.4 643.36z" /></clipPath><clipPath id="96"><path clip-rule="evenodd" d="M355.92 667.24L453.96 667.24L453.96 667.24L453.96 643.36L453.96 643.36L355.92 643.36z" /></clipPath><clipPath id="97"><path clip-rule="evenodd" d="M454.2 667.24L499.8 667.24L499.8 667.24L499.8 643.36L499.8 643.36L454.2 643.36z" /></clipPath><clipPath id="98"><path clip-rule="evenodd" d="M454.2 667.24L499.8 667.24L499.8 667.24L499.8 643.36L499.8 643.36L454.2 643.36z" /></clipPath><clipPath id="99"><path clip-rule="evenodd" d="M500.16 667.24L559.08 667.24L559.08 667.24L559.08 643.36L559.08 643.36L500.16 643.36z" /></clipPath><clipPath id="100"><path clip-rule="evenodd" d="M146.28 693.64L244.32 693.64L244.32 693.64L244.32 667.72L244.32 667.72L146.28 667.72z" /></clipPath><clipPath id="101"><path clip-rule="evenodd" d="M244.56 693.64L290.16 693.64L290.16 693.64L290.16 667.72L290.16 667.72L244.56 667.72z" /></clipPath><clipPath id="102"><path clip-rule="evenodd" d="M244.56 693.64L290.16 693.64L290.16 693.64L290.16 667.72L290.16 667.72L244.56 667.72z" /></clipPath><clipPath id="103"><path clip-rule="evenodd" d="M290.4 693.64L342.6 693.64L342.6 693.64L342.6 667.72L342.6 667.72L290.4 667.72z" /></clipPath><clipPath id="104"><path clip-rule="evenodd" d="M355.92 693.64L453.96 693.64L453.96 693.64L453.96 667.72L453.96 667.72L355.92 667.72z" /></clipPath><clipPath id="105"><path clip-rule="evenodd" d="M454.2 693.64L499.8 693.64L499.8 693.64L499.8 667.72L499.8 667.72L454.2 667.72z" /></clipPath><clipPath id="106"><path clip-rule="evenodd" d="M454.2 693.64L499.8 693.64L499.8 693.64L499.8 667.72L499.8 667.72L454.2 667.72z" /></clipPath><clipPath id="107"><path clip-rule="evenodd" d="M500.16 693.64L559.08 693.64L559.08 693.64L559.08 667.72L559.08 667.72L500.16 667.72z" /></clipPath><clipPath id="108"><path clip-rule="evenodd" d="M12.96 121L242.76 121L242.76 121L242.76 57.03998L242.76 57.03998L12.96 57.03998z" /></clipPath><clipPath id="109"><path clip-rule="evenodd" d="M12.96 121L242.76 121L242.76 121L242.76 57.03998L242.76 57.03998L12.96 57.03998z" /></clipPath><clipPath id="110"><path clip-rule="evenodd" d="M12.96 121L242.76 121L242.76 121L242.76 57.03998L242.76 57.03998L12.96 57.03998z" /></clipPath><clipPath id="111"><path clip-rule="evenodd" d="M12.96 121L242.76 121L242.76 121L242.76 57.03998L242.76 57.03998L12.96 57.03998z" /></clipPath><clipPath id="112"><path clip-rule="evenodd" d="M12.96 121L242.76 121L242.76 121L242.76 57.03998L242.76 57.03998L12.96 57.03998z" /></clipPath><clipPath id="113"><path clip-rule="evenodd" d="M12.96 121L242.76 121L242.76 121L242.76 57.03998L242.76 57.03998L12.96 57.03998z" /></clipPath><clipPath id="114"><path clip-rule="evenodd" d="M12.96 121L242.76 121L242.76 121L242.76 57.03998L242.76 57.03998L12.96 57.03998z" /></clipPath><clipPath id="115"><path clip-rule="evenodd" d="M12.96 121L242.76 121L242.76 121L242.76 57.03998L242.76 57.03998L12.96 57.03998z" /></clipPath><clipPath id="116"><path clip-rule="evenodd" d="M12.96 121L242.76 121L242.76 121L242.76 57.03998L242.76 57.03998L12.96 57.03998z" /></clipPath><clipPath id="117"><path clip-rule="evenodd" d="M12.96 121L242.76 121L242.76 121L242.76 57.03998L242.76 57.03998L12.96 57.03998z" /></clipPath><clipPath id="118"><path clip-rule="evenodd" d="M12.96 121L242.76 121L242.76 121L242.76 57.03998L242.76 57.03998L12.96 57.03998z" /></clipPath><clipPath id="119"><path clip-rule="evenodd" d="M369.6 121L558.12 121L558.12 121L558.12 21.03998L558.12 21.03998L369.6 21.03998z" /></clipPath><clipPath id="120"><path clip-rule="evenodd" d="M369.6 121L558.12 121L558.12 121L558.12 21.03998L558.12 21.03998L369.6 21.03998z" /></clipPath><clipPath id="121"><path clip-rule="evenodd" d="M369.6 121L558.12 121L558.12 121L558.12 21.03998L558.12 21.03998L369.6 21.03998z" /></clipPath><clipPath id="122"><path clip-rule="evenodd" d="M369.6 121L558.12 121L558.12 121L558.12 21.03998L558.12 21.03998L369.6 21.03998z" /></clipPath><clipPath id="123"><path clip-rule="evenodd" d="M369.6 121L558.12 121L558.12 121L558.12 21.03998L558.12 21.03998L369.6 21.03998z" /></clipPath><clipPath id="124"><path clip-rule="evenodd" d="M369.6 121L558.12 121L558.12 121L558.12 21.03998L558.12 21.03998L369.6 21.03998z" /></clipPath><clipPath id="125"><path clip-rule="evenodd" d="M369.6 121L558.12 121L558.12 121L558.12 21.03998L558.12 21.03998L369.6 21.03998z" /></clipPath><clipPath id="126"><path clip-rule="evenodd" d="M369.6 121L558.12 121L558.12 121L558.12 21.03998L558.12 21.03998L369.6 21.03998z" /></clipPath><clipPath id="127"><path clip-rule="evenodd" d="M369.6 121L558.12 121L558.12 121L558.12 21.03998L558.12 21.03998L369.6 21.03998z" /></clipPath><clipPath id="128"><path clip-rule="evenodd" d="M369.6 121L558.12 121L558.12 121L558.12 21.03998L558.12 21.03998L369.6 21.03998z" /></clipPath><clipPath id="129"><path clip-rule="evenodd" d="M369.6 121L558.12 121L558.12 121L558.12 21.03998L558.12 21.03998L369.6 21.03998z" /></clipPath><clipPath id="130"><path clip-rule="evenodd" d="M369.6 121L558.12 121L558.12 121L558.12 21.03998L558.12 21.03998L369.6 21.03998z" /></clipPath><clipPath id="131"><path clip-rule="evenodd" d="M649.2 688.12L711.36 688.12L711.36 688.12L711.36 642.04L711.36 642.04L649.2 642.04z" /></clipPath><clipPath id="132"><path clip-rule="evenodd" d="M649.2 688.12L711.36 688.12L711.36 688.12L711.36 642.04L711.36 642.04L649.2 642.04z" /></clipPath><clipPath id="133"><path clip-rule="evenodd" d="M336.72 758.92L408 758.92L408 758.92L408 712.84L408 712.84L336.72 712.84z" /></clipPath><clipPath id="134"><path clip-rule="evenodd" d="M336.72 758.92L408 758.92L408 758.92L408 712.84L408 712.84L336.72 712.84z" /></clipPath><clipPath id="135"><path clip-rule="evenodd" d="M408.72 758.92L484.92 758.92L484.92 758.92L484.92 712.84L484.92 712.84L408.72 712.84z" /></clipPath><clipPath id="136"><path clip-rule="evenodd" d="M243.6 103L324.12 103L324.12 103L324.12 57.03998L324.12 57.03998L243.6 57.03998z" /></clipPath><clipPath id="137"><path clip-rule="evenodd" d="M243.6 103L324.12 103L324.12 103L324.12 57.03998L324.12 57.03998L243.6 57.03998z" /></clipPath><clipPath id="138"><path clip-rule="evenodd" d="M243.6 103L324.12 103L324.12 103L324.12 57.03998L324.12 57.03998L243.6 57.03998z" /></clipPath><clipPath id="139"><path clip-rule="evenodd" d="M243.6 103L324.12 103L324.12 103L324.12 57.03998L324.12 57.03998L243.6 57.03998z" /></clipPath><clipPath id="140"><path clip-rule="evenodd" d="M249.36 159.4L492.24 159.4L492.24 159.4L492.24 132.52L492.24 132.52L249.36 132.52z" /></clipPath><clipPath id="141"><path clip-rule="evenodd" d="M249.36 159.4L492.24 159.4L492.24 159.4L492.24 132.52L492.24 132.52L249.36 132.52z" /></clipPath><clipPath id="142"><path clip-rule="evenodd" d="M249.36 159.4L492.24 159.4L492.24 159.4L492.24 132.52L492.24 132.52L249.36 132.52z" /></clipPath><clipPath id="143"><path clip-rule="evenodd" d="M69.96 259.48L374.64 259.48L374.64 259.48L374.64 201.88L374.64 201.88L69.96 201.88z" /></clipPath><clipPath id="144"><path clip-rule="evenodd" d="M69.96 259.48L374.64 259.48L374.64 259.48L374.64 201.88L374.64 201.88L69.96 201.88z" /></clipPath><clipPath id="145"><path clip-rule="evenodd" d="M273.72 758.92L336 758.92L336 758.92L336 712.84L336 712.84L273.72 712.84z" /></clipPath><clipPath id="146"><path clip-rule="evenodd" d="M273.72 758.92L336 758.92L336 758.92L336 712.84L336 712.84L273.72 712.84z" /></clipPath><clipPath id="147"><path clip-rule="evenodd" d="M273.72 758.92L336 758.92L336 758.92L336 712.84L336 712.84L273.72 712.84z" /></clipPath><clipPath id="148"><path clip-rule="evenodd" d="M273.72 758.92L336 758.92L336 758.92L336 712.84L336 712.84L273.72 712.84z" /></clipPath><clipPath id="149"><path clip-rule="evenodd" d="M273.72 758.92L336 758.92L336 758.92L336 712.84L336 712.84L273.72 712.84z" /></clipPath><clipPath id="150"><path clip-rule="evenodd" d="M273.72 758.92L336 758.92L336 758.92L336 712.84L336 712.84L273.72 712.84z" /></clipPath><clipPath id="151"><path clip-rule="evenodd" d="M273.72 758.92L336 758.92L336 758.92L336 712.84L336 712.84L273.72 712.84z" /></clipPath><clipPath id="152"><path clip-rule="evenodd" d="M153.36 757.96L225 757.96L225 757.96L225 712.84L225 712.84L153.36 712.84z" /></clipPath><clipPath id="153"><path clip-rule="evenodd" d="M0 355.84L549 355.84L549 355.84L549 328.96L549 328.96L0 328.96z" /></clipPath><clipPath id="154"><path clip-rule="evenodd" d="M0 355.84L549 355.84L549 355.84L549 328.96L549 328.96L0 328.96z" /></clipPath><clipPath id="155"><path clip-rule="evenodd" d="M0.36 44.08002L351.36 44.08002L351.36 44.08002L351.36 17.20001L351.36 17.20001L0.36 17.20001z" /></clipPath><clipPath id="156"><path clip-rule="evenodd" d="M0.36 44.08002L351.36 44.08002L351.36 44.08002L351.36 17.20001L351.36 17.20001L0.36 17.20001z" /></clipPath><clipPath id="157"><path clip-rule="evenodd" d="M0.36 44.08002L351.36 44.08002L351.36 44.08002L351.36 17.20001L351.36 17.20001L0.36 17.20001z" /></clipPath><clipPath id="158"><path clip-rule="evenodd" d="M0.36 44.08002L351.36 44.08002L351.36 44.08002L351.36 17.20001L351.36 17.20001L0.36 17.20001z" /></clipPath><clipPath id="159"><path clip-rule="evenodd" d="M70.32 317.08L374.28 317.08L374.28 317.08L374.28 267.28L374.28 267.28L70.32 267.28z" /></clipPath><clipPath id="160"><path clip-rule="evenodd" d="M70.32 317.08L374.28 317.08L374.28 317.08L374.28 267.28L374.28 267.28L70.32 267.28z" /></clipPath><clipPath id="161"><path clip-rule="evenodd" d="M70.32 317.08L374.28 317.08L374.28 317.08L374.28 267.28L374.28 267.28L70.32 267.28z" /></clipPath><clipPath id="162"><path clip-rule="evenodd" d="M5.4 383.56L491.28 383.56L491.28 383.56L491.28 356.68L491.28 356.68L5.4 356.68z" /></clipPath><clipPath id="163"><path clip-rule="evenodd" d="M5.4 383.56L491.28 383.56L491.28 383.56L491.28 356.68L491.28 356.68L5.4 356.68z" /></clipPath><clipPath id="164"><path clip-rule="evenodd" d="M5.4 383.56L491.28 383.56L491.28 383.56L491.28 356.68L491.28 356.68L5.4 356.68z" /></clipPath><clipPath id="165"><path clip-rule="evenodd" d="M5.4 383.56L491.28 383.56L491.28 383.56L491.28 356.68L491.28 356.68L5.4 356.68z" /></clipPath><clipPath id="166"><path clip-rule="evenodd" d="M5.4 383.56L491.28 383.56L491.28 383.56L491.28 356.68L491.28 356.68L5.4 356.68z" /></clipPath><clipPath id="167"><path clip-rule="evenodd" d="M5.4 383.56L491.28 383.56L491.28 383.56L491.28 356.68L491.28 356.68L5.4 356.68z" /></clipPath><clipPath id="168"><path clip-rule="evenodd" d="M16.8 706.96L225.12 706.96L225.12 706.96L225.12 688.12L225.12 688.12L16.8 688.12z" /></clipPath><clipPath id="169"><path clip-rule="evenodd" d="M16.8 706.96L225.12 706.96L225.12 706.96L225.12 688.12L225.12 688.12L16.8 688.12z" /></clipPath><clipPath id="170"><path clip-rule="evenodd" d="M81 757.96L152.64 757.96L152.64 757.96L152.64 712.84L152.64 712.84L81 712.84z" /></clipPath><clipPath id="171"><path clip-rule="evenodd" d="M81 757.96L152.64 757.96L152.64 757.96L152.64 712.84L152.64 712.84L81 712.84z" /></clipPath><clipPath id="172"><path clip-rule="evenodd" d="M17.04 757.96L80.16 757.96L80.16 757.96L80.16 712.84L80.16 712.84L17.04 712.84z" /></clipPath><clipPath id="173"><path clip-rule="evenodd" d="M17.04 757.96L80.16 757.96L80.16 757.96L80.16 712.84L80.16 712.84L17.04 712.84z" /></clipPath><clipPath id="174"><path clip-rule="evenodd" d="M17.04 757.96L80.16 757.96L80.16 757.96L80.16 712.84L80.16 712.84L17.04 712.84z" /></clipPath><clipPath id="175"><path clip-rule="evenodd" d="M17.04 757.96L80.16 757.96L80.16 757.96L80.16 712.84L80.16 712.84L17.04 712.84z" /></clipPath><clipPath id="176"><path clip-rule="evenodd" d="M17.04 757.96L80.16 757.96L80.16 757.96L80.16 712.84L80.16 712.84L17.04 712.84z" /></clipPath><clipPath id="177"><path clip-rule="evenodd" d="M17.04 757.96L80.16 757.96L80.16 757.96L80.16 712.84L80.16 712.84L17.04 712.84z" /></clipPath><clipPath id="178"><path clip-rule="evenodd" d="M70.2 190.12L313.08 190.12L313.08 190.12L313.08 163.24L313.08 163.24L70.2 163.24z" /></clipPath><clipPath id="179"><path clip-rule="evenodd" d="M70.2 190.12L313.08 190.12L313.08 190.12L313.08 163.24L313.08 163.24L70.2 163.24z" /></clipPath><clipPath id="180"><path clip-rule="evenodd" d="M70.2 190.12L313.08 190.12L313.08 190.12L313.08 163.24L313.08 163.24L70.2 163.24z" /></clipPath><clipPath id="181"><path clip-rule="evenodd" d="M70.2 190.12L313.08 190.12L313.08 190.12L313.08 163.24L313.08 163.24L70.2 163.24z" /></clipPath><clipPath id="182"><path clip-rule="evenodd" d="M273.48 707.08L485.16 707.08L485.16 707.08L485.16 688.24L485.16 688.24L273.48 688.24z" /></clipPath><clipPath id="183"><path clip-rule="evenodd" d="M273.48 707.08L485.16 707.08L485.16 707.08L485.16 688.24L485.16 688.24L273.48 688.24z" /></clipPath></defs><g transform="matrix(1.333333 0 0 1.333333 0 0)"><g clip-path="url(#1)"><path transform="matrix(1 0 0 -1 0 841)" d="M0 0.12L595.3 0.12L595.3 0.12L595.3 841.92L595.3 841.92L0 841.92z" stroke="none" fill="#FFFFFF" fill-rule="evenodd" /><g transform="matrix(0.3603306 0 0 0.39 8.64 135.64)"><g transform="matrix(1 0 0 1 0 0)"><image x="0" y="0" xlink:href="img_01.png" width="726" height="4" /></g></g><g clip-path="url(#2)"></g><g clip-path="url(#3)"></g><g clip-path="url(#4)"></g><g clip-path="url(#5)"></g><g clip-path="url(#6)"></g><g clip-path="url(#7)"></g><g clip-path="url(#8)"></g><g clip-path="url(#9)"></g><g clip-path="url(#10)"></g><g clip-path="url(#11)"></g><g clip-path="url(#12)"></g><g clip-path="url(#13)"></g><g clip-path="url(#14)"></g><g clip-path="url(#15)"></g><g clip-path="url(#16)"></g><g clip-path="url(#17)"></g><g clip-path="url(#18)"></g><g clip-path="url(#19)"></g><g clip-path="url(#20)"></g><g clip-path="url(#21)"></g><g transform="matrix(0.36 0 0 0.3604586 30.6 387.4)"><g transform="matrix(1 0 0 1 0 0)"><image x="0" y="0" xlink:href="img_02.png" width="1484" height="785" /></g></g><g transform="matrix(0.3605063 0 0 0.3623301 41.88 417.04)"><g transform="matrix(1 0 0 1 0 0)"><image x="0" y="0" xlink:href="img_03.png" width="237" height="103" /></g></g><g clip-path="url(#22)"></g><g clip-path="url(#23)"></g><g clip-path="url(#24)"></g><g clip-path="url(#25)"></g><g clip-path="url(#26)"></g><g clip-path="url(#27)"></g><g clip-path="url(#28)"></g><g clip-path="url(#29)"></g><g clip-path="url(#30)"></g><g clip-path="url(#31)"></g><g clip-path="url(#32)"></g><g clip-path="url(#33)"></g><g clip-path="url(#34)"></g><g clip-path="url(#35)"></g><g clip-path="url(#36)"></g><g clip-path="url(#37)"></g><g clip-path="url(#38)"></g><g clip-path="url(#39)"></g><g clip-path="url(#40)"></g><g clip-path="url(#41)"></g><g clip-path="url(#42)"></g><g clip-path="url(#43)"></g><g clip-path="url(#44)"></g><g clip-path="url(#45)"></g><g clip-path="url(#46)"></g><g clip-path="url(#47)"></g><g clip-path="url(#48)"></g><g clip-path="url(#49)"></g><g clip-path="url(#50)"></g><g clip-path="url(#51)"></g><g clip-path="url(#52)"></g><g clip-path="url(#53)"></g><g clip-path="url(#54)"></g><g clip-path="url(#55)"></g><g clip-path="url(#56)"></g><g clip-path="url(#57)"></g><g clip-path="url(#58)"></g><g clip-path="url(#59)"></g><g clip-path="url(#60)"></g><g clip-path="url(#61)"></g><g clip-path="url(#62)"></g><g clip-path="url(#63)"></g><g clip-path="url(#64)"></g><g clip-path="url(#65)"></g><g clip-path="url(#66)"></g><g clip-path="url(#67)"></g><g clip-path="url(#68)"></g><g clip-path="url(#69)"></g><g clip-path="url(#70)"></g><g clip-path="url(#71)"></g><g clip-path="url(#72)"></g><g clip-path="url(#73)"></g><g clip-path="url(#74)"></g><g clip-path="url(#75)"></g><g clip-path="url(#76)"></g><g clip-path="url(#77)"></g><g clip-path="url(#78)"></g><g clip-path="url(#79)"></g><g clip-path="url(#80)"></g><g clip-path="url(#81)"></g><g clip-path="url(#82)"></g><g clip-path="url(#83)"></g><g clip-path="url(#84)"></g><g clip-path="url(#85)"></g><g clip-path="url(#86)"></g><g clip-path="url(#87)"></g><g clip-path="url(#88)"></g><g clip-path="url(#89)"></g><g clip-path="url(#90)"></g><g clip-path="url(#91)"></g><g clip-path="url(#92)"></g><g clip-path="url(#93)"></g><g clip-path="url(#94)"></g><g clip-path="url(#95)"></g><g clip-path="url(#96)"></g><g clip-path="url(#97)"></g><g clip-path="url(#98)"></g><g clip-path="url(#99)"></g><g clip-path="url(#100)"></g><g clip-path="url(#101)"></g><g clip-path="url(#102)"></g><g clip-path="url(#103)"></g><g clip-path="url(#104)"></g><g clip-path="url(#105)"></g><g clip-path="url(#106)"></g><g clip-path="url(#107)"></g><path transform="matrix(1 0 0 -1 0 841)" d="M12.65 715.87L243.05 715.87L243.05 715.87L243.05 788.02L243.05 788.02L12.65 788.02z" stroke="none" fill="#FFFFFF" fill-rule="evenodd" /><path transform="matrix(1 0 0 -1 0 841)" d="M12.65 715.87L243.05 715.87L243.05 715.87L243.05 788.02L243.05 788.02L12.65 788.02z" stroke="#000000" stroke-width="0.5" fill="none" /><g transform="matrix(0.3601881 0 0 0.3613559 12.96 57.03998)"><g transform="matrix(1 0 0 1 0 0)"><image x="0" y="0" xlink:href="img_04.png" width="638" height="177" /></g></g><g clip-path="url(#108)"></g><g clip-path="url(#109)"></g><g clip-path="url(#110)"></g><g clip-path="url(#111)"></g><g clip-path="url(#112)"></g><g clip-path="url(#113)"></g><g clip-path="url(#114)"></g><g clip-path="url(#115)"></g><g clip-path="url(#116)"></g><g clip-path="url(#117)"></g><g clip-path="url(#118)"></g><path transform="matrix(1 0 0 -1 0 841)" d="M369.3 715.87L558.45 715.87L558.45 715.87L558.45 824.02L558.45 824.02L369.3 824.02z" stroke="none" fill="#FFFFFF" fill-rule="evenodd" /><path transform="matrix(1 0 0 -1 0 841)" d="M369.3 715.87L558.45 715.87L558.45 715.87L558.45 824.02L558.45 824.02L369.3 824.02z" stroke="#000000" stroke-width="0.5" fill="none" /><g transform="matrix(0.3606883 0 0 0.3608664 369.6 21.03998)"><g transform="matrix(1 0 0 1 0 0)"><image x="0" y="0" xlink:href="img_05.png" width="523" height="277" /></g></g><g clip-path="url(#119)"></g><g clip-path="url(#120)"></g><g clip-path="url(#121)"></g><g clip-path="url(#122)"></g><g clip-path="url(#123)"></g><g clip-path="url(#124)"></g><g clip-path="url(#125)"></g><g clip-path="url(#126)"></g><g clip-path="url(#127)"></g><g clip-path="url(#128)"></g><g clip-path="url(#129)"></g><g clip-path="url(#130)"></g><g clip-path="url(#131)"></g><g clip-path="url(#132)"></g><path transform="matrix(1 0 0 -1 0 841)" d="M336.35 78.072L408.35 78.072L408.35 78.072L408.35 132.072L408.35 132.072L336.35 132.072z" stroke="none" fill="#FFFFFF" fill-rule="evenodd" /><path transform="matrix(1 0 0 -1 0 841)" d="M336.35 78.072L408.35 78.072L408.35 78.072L408.35 132.072L408.35 132.072L336.35 132.072z" stroke="#000000" stroke-width="0.73701" stroke-linecap="square" fill="none" /><g transform="matrix(0.36 0 0 0.3609375 336.72 712.84)"><g transform="matrix(1 0 0 1 0 0)"><image x="0" y="0" xlink:href="img_06.png" width="198" height="128" /></g></g><g clip-path="url(#133)"></g><g clip-path="url(#134)"></g><path transform="matrix(1 0 0 -1 0 841)" d="M408.35 78.072L485.35 78.072L485.35 78.072L485.35 132.072L485.35 132.072L408.35 132.072z" stroke="none" fill="#FFFFFF" fill-rule="evenodd" /><path transform="matrix(1 0 0 -1 0 841)" d="M408.35 78.072L485.35 78.072L485.35 78.072L485.35 132.072L485.35 132.072L408.35 132.072z" stroke="#000000" stroke-width="0.73701" stroke-linecap="square" fill="none" /><g transform="matrix(0.36 0 0 0.3609375 408.72 712.84)"><g transform="matrix(1 0 0 1 0 0)"><image x="0" y="0" xlink:href="img_07.png" width="212" height="128" /></g></g><g clip-path="url(#135)"></g><path transform="matrix(1 0 0 -1 0 841)" d="M243.3 733.87L324.45 733.87L324.45 733.87L324.45 788.02L324.45 788.02L243.3 788.02z" stroke="none" fill="#FFFFFF" fill-rule="evenodd" /><path transform="matrix(1 0 0 -1 0 841)" d="M243.3 733.87L324.45 733.87L324.45 733.87L324.45 788.02L324.45 788.02L243.3 788.02z" stroke="#000000" stroke-width="0.5" fill="none" /><g transform="matrix(0.3616144 0 0 0.3618897 243.6 57.03998)"><g transform="matrix(1 0 0 1 0 0)"><image x="0" y="0" xlink:href="img_08.png" width="223" height="127" /></g></g><g clip-path="url(#136)"></g><g clip-path="url(#137)"></g><g clip-path="url(#138)"></g><g clip-path="url(#139)"></g><path transform="matrix(1 0 0 -1 0 841)" d="M249.3 681.56L492.25 681.56L492.25 681.56L492.25 708.51L492.25 708.51L249.3 708.51z" stroke="none" fill="#DDDDDD" fill-rule="evenodd" fill-opacity="0.3254902" /><g transform="matrix(0.3603561 0 0 0.3632433 249.36 132.52)"><g transform="matrix(1 0 0 1 0 0)"><image x="0" y="0" xlink:href="img_09.png" width="674" height="74" /></g></g><g clip-path="url(#140)"></g><g clip-path="url(#141)"></g><g clip-path="url(#142)"></g><path transform="matrix(1 0 0 -1 0 841)" d="M69.65 577.32L374.95 577.32L374.95 577.32L374.95 643.27L374.95 643.27L69.65 643.27z" stroke="none" fill="#FFFFFF" fill-rule="evenodd" /><path transform="matrix(1 0 0 -1 0 841)" d="M69.65 577.32L374.95 577.32L374.95 577.32L374.95 643.27L374.95 643.27L69.65 643.27z" stroke="#000000" stroke-width="0.5" fill="none" /><g transform="matrix(0.3601418 0 0 0.36075 69.96 201.88)"><g transform="matrix(1 0 0 1 0 0)"><image x="0" y="0" xlink:href="img_10.png" width="846" height="160" /></g></g><g clip-path="url(#143)"></g><g clip-path="url(#144)"></g><path transform="matrix(1 0 0 -1 0 841)" d="M273.35 78.072L336.35 78.072L336.35 78.072L336.35 132.072L336.35 132.072L273.35 132.072z" stroke="none" fill="#FFFFFF" fill-rule="evenodd" /><path transform="matrix(1 0 0 -1 0 841)" d="M273.35 78.072L336.35 78.072L336.35 78.072L336.35 132.072L336.35 132.072L273.35 132.072z" stroke="#000000" stroke-width="0.73701" stroke-linecap="square" fill="none" /><g transform="matrix(0.36 0 0 0.3609375 273.72 712.84)"><g transform="matrix(1 0 0 1 0 0)"><image x="0" y="0" xlink:href="img_11.png" width="173" height="128" /></g></g><g clip-path="url(#145)"></g><g clip-path="url(#146)"></g><g clip-path="url(#147)"></g><g clip-path="url(#148)"></g><g clip-path="url(#149)"></g><g clip-path="url(#150)"></g><g clip-path="url(#151)"></g><path transform="matrix(1 0 0 -1 0 841)" d="M153 79.072L225.35 79.072L225.35 79.072L225.35 132.072L225.35 132.072L153 132.072z" stroke="none" fill="#FFFFFF" fill-rule="evenodd" /><path transform="matrix(1 0 0 -1 0 841)" d="M153 79.072L225.35 79.072L225.35 79.072L225.35 132.072L225.35 132.072L153 132.072z" stroke="#000000" stroke-width="0.73701" stroke-linecap="square" fill="none" /><g transform="matrix(0.36 0 0 0.36096 153.36 712.84)"><g transform="matrix(1 0 0 1 0 0)"><image x="0" y="0" xlink:href="img_12.png" width="199" height="125" /></g></g><g clip-path="url(#152)"></g><path transform="matrix(1 0 0 -1 0 841)" d="M0 485.08L549 485.08L549 485.08L549 512.08L549 512.08L0 512.08z" stroke="none" fill="#DDDDDD" fill-rule="evenodd" fill-opacity="0.3215686" /><g transform="matrix(0.3602362 0 0 0.3648649 0 328.96)"><g transform="matrix(1 0 0 1 0 0)"><image x="0" y="0" xlink:href="img_13.png" width="1524" height="74" /></g></g><g clip-path="url(#153)"></g><g clip-path="url(#154)"></g><path transform="matrix(1 0 0 -1 0 841)" d="M0.39992 796.82L351.3499 796.82L351.3499 796.82L351.3499 823.77L351.3499 823.77L0.39992 823.77z" stroke="none" fill="#DDDDDD" fill-rule="evenodd" fill-opacity="0.3254902" /><g transform="matrix(0.3603696 0 0 0.3648649 0.36 17.20001)"><g transform="matrix(1 0 0 1 0 0)"><image x="0" y="0" xlink:href="img_14.png" width="974" height="74" /></g></g><g clip-path="url(#155)"></g><g clip-path="url(#156)"></g><g clip-path="url(#157)"></g><g clip-path="url(#158)"></g><path transform="matrix(1 0 0 -1 0 841)" d="M70.05 519.72L374.55 519.72L374.55 519.72L374.55 577.87L374.55 577.87L70.05 577.87z" stroke="none" fill="#FFFFFF" fill-rule="evenodd" /><path transform="matrix(1 0 0 -1 0 841)" d="M70.05 519.72L374.55 519.72L374.55 519.72L374.55 577.87L374.55 577.87L70.05 577.87z" stroke="#000000" stroke-width="0.5" fill="none" /><g transform="matrix(0.3601422 0 0 0.3617391 70.32 267.28)"><g transform="matrix(1 0 0 1 0 0)"><image x="0" y="0" xlink:href="img_15.png" width="844" height="138" /></g></g><g clip-path="url(#159)"></g><g clip-path="url(#160)"></g><g transform="matrix(0.1204724 0 0 0.12 77.784 283.17)"><g transform="matrix(1 0 0 1 0 0)"><image x="0" y="0" xlink:href="img_16.png" width="127" height="93" /></g></g><g transform="matrix(0.1204724 0 0 0.12 185.81 283.17)"><g transform="matrix(1 0 0 1 0 0)"><image x="0" y="0" xlink:href="img_16.png" width="127" height="93" /></g></g><g transform="matrix(0.1204724 0 0 0.12 77.784 298.65)"><g transform="matrix(1 0 0 1 0 0)"><image x="0" y="0" xlink:href="img_16.png" width="127" height="93" /></g></g><g transform="matrix(0.1204724 0 0 0.12 188.57 298.65)"><g transform="matrix(1 0 0 1 0 0)"><image x="0" y="0" xlink:href="img_16.png" width="127" height="93" /></g></g><g clip-path="url(#161)"></g><path transform="matrix(1 0 0 -1 0 841)" d="M5.3501 457.43L491.3001 457.43L491.3001 457.43L491.3001 484.38L491.3001 484.38L5.3501 484.38z" stroke="none" fill="#FFFFFF" fill-rule="evenodd" /><g transform="matrix(0.3601779 0 0 0.3632433 5.4 356.68)"><g transform="matrix(1 0 0 1 0 0)"><image x="0" y="0" xlink:href="img_17.png" width="1349" height="74" /></g></g><g clip-path="url(#162)"></g><g clip-path="url(#163)"></g><g clip-path="url(#164)"></g><g clip-path="url(#165)"></g><g clip-path="url(#166)"></g><g clip-path="url(#167)"></g><path transform="matrix(1 0 0 -1 0 841)" d="M16.55 129.87L225.4 129.87L225.4 129.87L225.4 157.02L225.4 157.02L16.55 157.02z" stroke="none" fill="#FFFFFF" fill-rule="evenodd" /><path transform="matrix(1 0 0 -1 0 841)" d="M16.55 129.87L225.4 129.87L225.4 129.87L225.4 157.02L225.4 157.02L16.55 157.02z" stroke="#000000" stroke-width="0.5" fill="none" /><g transform="matrix(0.3604153 0 0 0.3646154 16.8 688.12)"><g transform="matrix(1 0 0 1 0 0)"><image x="0" y="0" xlink:href="img_18.png" width="578" height="52" /></g></g><g clip-path="url(#168)"></g><g clip-path="url(#169)"></g><path transform="matrix(1 0 0 -1 0 841)" d="M80.65 79.072L153 79.072L153 79.072L153 132.072L153 132.072L80.65 132.072z" stroke="none" fill="#FFFFFF" fill-rule="evenodd" /><path transform="matrix(1 0 0 -1 0 841)" d="M80.65 79.072L153 79.072L153 79.072L153 132.072L153 132.072L80.65 132.072z" stroke="#000000" stroke-width="0.73701" stroke-linecap="square" fill="none" /><g transform="matrix(0.36 0 0 0.36096 81 712.84)"><g transform="matrix(1 0 0 1 0 0)"><image x="0" y="0" xlink:href="img_12.png" width="199" height="125" /></g></g><g clip-path="url(#170)"></g><g clip-path="url(#171)"></g><path transform="matrix(1 0 0 -1 0 841)" d="M16.65 79.072L80.6 79.072L80.6 79.072L80.6 132.072L80.6 132.072L16.65 132.072z" stroke="none" fill="#FFFFFF" fill-rule="evenodd" /><path transform="matrix(1 0 0 -1 0 841)" d="M16.65 79.072L80.6 79.072L80.6 79.072L80.6 132.072L80.6 132.072L16.65 132.072z" stroke="#000000" stroke-width="0.73701" stroke-linecap="square" fill="none" /><g transform="matrix(0.3613714 0 0 0.36096 17.04 712.84)"><g transform="matrix(1 0 0 1 0 0)"><image x="0" y="0" xlink:href="img_19.png" width="175" height="125" /></g></g><g clip-path="url(#172)"></g><g clip-path="url(#173)"></g><g clip-path="url(#174)"></g><g clip-path="url(#175)"></g><g clip-path="url(#176)"></g><g clip-path="url(#177)"></g><path transform="matrix(1 0 0 -1 0 841)" d="M70.15 650.81L313.1 650.81L313.1 650.81L313.1 677.76L313.1 677.76L70.15 677.76z" stroke="none" fill="#DDDDDD" fill-rule="evenodd" fill-opacity="0.3254902" /><g transform="matrix(0.3603561 0 0 0.3648649 70.2 163.24)"><g transform="matrix(1 0 0 1 0 0)"><image x="0" y="0" xlink:href="img_09.png" width="674" height="74" /></g></g><g clip-path="url(#178)"></g><g clip-path="url(#179)"></g><g clip-path="url(#180)"></g><g clip-path="url(#181)"></g><path transform="matrix(1 0 0 -1 0 841)" d="M273.25 129.72L485.4 129.72L485.4 129.72L485.4 156.87L485.4 156.87L273.25 156.87z" stroke="none" fill="#FFFFFF" fill-rule="evenodd" /><path transform="matrix(1 0 0 -1 0 841)" d="M273.25 129.72L485.4 129.72L485.4 129.72L485.4 156.87L485.4 156.87L273.25 156.87z" stroke="#000000" stroke-width="0.5" fill="none" /><g transform="matrix(0.3606133 0 0 0.3646154 273.48 688.24)"><g transform="matrix(1 0 0 1 0 0)"><image x="0" y="0" xlink:href="img_20.png" width="587" height="52" /></g></g><g clip-path="url(#182)"></g><g clip-path="url(#183)"></g></g></g></svg>